<mxfile host="drawio-plugin" modified="2022-01-19T23:00:07.369Z" agent="5.0 (X11; Linux x86_64) AppleWebKit/537.36 (KHTML, like Gecko) Chrome/89.0.4389.114 Safari/537.36" etag="oGogOENqvp_t5896qvBt" version="15.5.4" type="embed"><diagram id="R2lEEEUBdFMjLlhIrx00" name="Page-1"><mxGraphModel dx="3564" dy="2392" grid="0" gridSize="10" guides="1" tooltips="1" connect="1" arrows="1" fold="1" page="1" pageScale="1" pageWidth="1920" pageHeight="1200" math="0" shadow="1" extFonts="Permanent Marker^https://fonts.googleapis.com/css?family=Permanent+Marker"><root><mxCell id="0"/><mxCell id="1" parent="0"/><mxCell id="OnCGVRJBsnfmnJsJHSmS-2" value="BlogPosts" style="whiteSpace=wrap;html=1;align=center;sketch=1;" parent="1" vertex="1"><mxGeometry x="-1077" y="-642" width="100" height="50" as="geometry"/></mxCell><mxCell id="OnCGVRJBsnfmnJsJHSmS-3" value="pinned" style="ellipse;whiteSpace=wrap;html=1;align=center;sketch=1;" parent="1" vertex="1"><mxGeometry x="-1217" y="-682" width="100" height="40" as="geometry"/></mxCell><mxCell id="OnCGVRJBsnfmnJsJHSmS-4" value="post_text" style="ellipse;whiteSpace=wrap;html=1;align=center;sketch=1;" parent="1" vertex="1"><mxGeometry x="-1257" y="-637" width="100" height="40" as="geometry"/></mxCell><mxCell id="OnCGVRJBsnfmnJsJHSmS-5" value="post_date" style="ellipse;whiteSpace=wrap;html=1;align=center;sketch=1;" parent="1" vertex="1"><mxGeometry x="-1227" y="-587" width="100" height="40" as="geometry"/></mxCell><mxCell id="OnCGVRJBsnfmnJsJHSmS-7" value="&lt;u&gt;bpid&lt;/u&gt;" style="ellipse;whiteSpace=wrap;html=1;align=center;sketch=1;" parent="1" vertex="1"><mxGeometry x="-1237" y="-747" width="100" height="40" as="geometry"/></mxCell><mxCell id="OnCGVRJBsnfmnJsJHSmS-10" value="Contacts" style="whiteSpace=wrap;html=1;align=center;sketch=1;" parent="1" vertex="1"><mxGeometry x="-697" y="-617" width="100" height="50" as="geometry"/></mxCell><mxCell id="OnCGVRJBsnfmnJsJHSmS-12" value="email" style="ellipse;whiteSpace=wrap;html=1;align=center;sketch=1;" parent="1" vertex="1"><mxGeometry x="-517" y="-737" width="100" height="40" as="geometry"/></mxCell><mxCell id="OnCGVRJBsnfmnJsJHSmS-13" value="firstname" style="ellipse;whiteSpace=wrap;html=1;align=center;sketch=1;" parent="1" vertex="1"><mxGeometry x="-537" y="-677" width="100" height="40" as="geometry"/></mxCell><mxCell id="OnCGVRJBsnfmnJsJHSmS-14" value="contact_text" style="ellipse;whiteSpace=wrap;html=1;align=center;sketch=1;" parent="1" vertex="1"><mxGeometry x="-417" y="-567" width="100" height="40" as="geometry"/></mxCell><mxCell id="OnCGVRJBsnfmnJsJHSmS-15" value="&lt;u&gt;coid&lt;/u&gt;" style="ellipse;whiteSpace=wrap;html=1;align=center;sketch=1;" parent="1" vertex="1"><mxGeometry x="-487" y="-527" width="100" height="40" as="geometry"/></mxCell><mxCell id="OnCGVRJBsnfmnJsJHSmS-21" value="Visits" style="whiteSpace=wrap;html=1;align=center;sketch=1;" parent="1" vertex="1"><mxGeometry x="-967" y="-257" width="100" height="40" as="geometry"/></mxCell><mxCell id="OnCGVRJBsnfmnJsJHSmS-22" value="visit_date" style="ellipse;whiteSpace=wrap;html=1;align=center;sketch=1;" parent="1" vertex="1"><mxGeometry x="-1147" y="-237" width="100" height="40" as="geometry"/></mxCell><mxCell id="OnCGVRJBsnfmnJsJHSmS-23" value="ipv4" style="ellipse;whiteSpace=wrap;html=1;align=center;sketch=1;" parent="1" vertex="1"><mxGeometry x="-1107" y="-177" width="100" height="40" as="geometry"/></mxCell><mxCell id="OnCGVRJBsnfmnJsJHSmS-26" value="Actions" style="whiteSpace=wrap;html=1;align=center;sketch=1;" parent="1" vertex="1"><mxGeometry x="-697" y="-287" width="100" height="40" as="geometry"/></mxCell><mxCell id="OnCGVRJBsnfmnJsJHSmS-28" value="ipv4" style="ellipse;whiteSpace=wrap;html=1;align=center;sketch=1;" parent="1" vertex="1"><mxGeometry x="-517" y="-337" width="100" height="40" as="geometry"/></mxCell><mxCell id="OnCGVRJBsnfmnJsJHSmS-30" value="type" style="ellipse;whiteSpace=wrap;html=1;align=center;sketch=1;" parent="1" vertex="1"><mxGeometry x="-537" y="-257" width="100" height="40" as="geometry"/></mxCell><mxCell id="OnCGVRJBsnfmnJsJHSmS-34" value="&lt;u&gt;aid&lt;/u&gt;" style="ellipse;whiteSpace=wrap;html=1;align=center;sketch=1;" parent="1" vertex="1"><mxGeometry x="-597" y="-207" width="100" height="40" as="geometry"/></mxCell><mxCell id="OnCGVRJBsnfmnJsJHSmS-35" value="&lt;u&gt;vid&lt;/u&gt;" style="ellipse;whiteSpace=wrap;html=1;align=center;sketch=1;" parent="1" vertex="1"><mxGeometry x="-867" y="-137" width="100" height="40" as="geometry"/></mxCell><mxCell id="OnCGVRJBsnfmnJsJHSmS-37" value="webclient" style="ellipse;whiteSpace=wrap;html=1;align=center;sketch=1;" parent="1" vertex="1"><mxGeometry x="-717" y="-187" width="100" height="40" as="geometry"/></mxCell><mxCell id="OnCGVRJBsnfmnJsJHSmS-38" value="" style="endArrow=none;html=1;entryX=1;entryY=0.5;entryDx=0;entryDy=0;exitX=0;exitY=0.5;exitDx=0;exitDy=0;sketch=1;curved=1;" parent="1" source="OnCGVRJBsnfmnJsJHSmS-21" target="OnCGVRJBsnfmnJsJHSmS-22" edge="1"><mxGeometry width="50" height="50" relative="1" as="geometry"><mxPoint x="-1027" y="-287" as="sourcePoint"/><mxPoint x="-947" y="-337" as="targetPoint"/></mxGeometry></mxCell><mxCell id="OnCGVRJBsnfmnJsJHSmS-39" value="" style="endArrow=none;html=1;entryX=1;entryY=0;entryDx=0;entryDy=0;exitX=0;exitY=1;exitDx=0;exitDy=0;sketch=1;curved=1;" parent="1" source="OnCGVRJBsnfmnJsJHSmS-21" target="OnCGVRJBsnfmnJsJHSmS-23" edge="1"><mxGeometry width="50" height="50" relative="1" as="geometry"><mxPoint x="-987" y="-277" as="sourcePoint"/><mxPoint x="-1021" y="-298" as="targetPoint"/></mxGeometry></mxCell><mxCell id="OnCGVRJBsnfmnJsJHSmS-40" value="" style="endArrow=none;html=1;entryX=0.5;entryY=0;entryDx=0;entryDy=0;exitX=0.25;exitY=1;exitDx=0;exitDy=0;sketch=1;curved=1;" parent="1" source="OnCGVRJBsnfmnJsJHSmS-21" target="OnCGVRJBsnfmnJsJHSmS-24" edge="1"><mxGeometry width="50" height="50" relative="1" as="geometry"><mxPoint x="-977" y="-267" as="sourcePoint"/><mxPoint x="-1011" y="-288" as="targetPoint"/><Array as="points"/></mxGeometry></mxCell><mxCell id="OnCGVRJBsnfmnJsJHSmS-41" value="" style="endArrow=none;html=1;entryX=0.5;entryY=0;entryDx=0;entryDy=0;exitX=0.75;exitY=1;exitDx=0;exitDy=0;startArrow=none;sketch=1;curved=1;" parent="1" source="OnCGVRJBsnfmnJsJHSmS-21" target="OnCGVRJBsnfmnJsJHSmS-35" edge="1"><mxGeometry width="50" height="50" relative="1" as="geometry"><mxPoint x="-967" y="-257" as="sourcePoint"/><mxPoint x="-1001" y="-278" as="targetPoint"/></mxGeometry></mxCell><mxCell id="OnCGVRJBsnfmnJsJHSmS-43" value="" style="endArrow=none;html=1;entryX=1.01;entryY=0.275;entryDx=0;entryDy=0;entryPerimeter=0;sketch=1;curved=1;" parent="1" source="OnCGVRJBsnfmnJsJHSmS-2" target="wlYPV-F7qflCaXFZatMz-9" edge="1"><mxGeometry width="50" height="50" relative="1" as="geometry"><mxPoint x="-947" y="-237" as="sourcePoint"/><mxPoint x="-1047" y="-467" as="targetPoint"/></mxGeometry></mxCell><mxCell id="OnCGVRJBsnfmnJsJHSmS-45" value="" style="endArrow=none;html=1;entryX=1;entryY=0;entryDx=0;entryDy=0;exitX=0;exitY=0.75;exitDx=0;exitDy=0;sketch=1;curved=1;" parent="1" source="OnCGVRJBsnfmnJsJHSmS-2" target="OnCGVRJBsnfmnJsJHSmS-5" edge="1"><mxGeometry width="50" height="50" relative="1" as="geometry"><mxPoint x="-997" y="-567" as="sourcePoint"/><mxPoint x="-1037" y="-507" as="targetPoint"/></mxGeometry></mxCell><mxCell id="OnCGVRJBsnfmnJsJHSmS-46" value="" style="endArrow=none;html=1;entryX=1;entryY=0.5;entryDx=0;entryDy=0;exitX=0;exitY=0.5;exitDx=0;exitDy=0;sketch=1;curved=1;" parent="1" source="OnCGVRJBsnfmnJsJHSmS-2" target="OnCGVRJBsnfmnJsJHSmS-4" edge="1"><mxGeometry width="50" height="50" relative="1" as="geometry"><mxPoint x="-997" y="-579.5" as="sourcePoint"/><mxPoint x="-1037" y="-557" as="targetPoint"/></mxGeometry></mxCell><mxCell id="OnCGVRJBsnfmnJsJHSmS-47" value="" style="endArrow=none;html=1;entryX=1.01;entryY=0.725;entryDx=0;entryDy=0;exitX=0;exitY=0.25;exitDx=0;exitDy=0;entryPerimeter=0;sketch=1;curved=1;" parent="1" source="OnCGVRJBsnfmnJsJHSmS-2" target="OnCGVRJBsnfmnJsJHSmS-3" edge="1"><mxGeometry width="50" height="50" relative="1" as="geometry"><mxPoint x="-987" y="-569.5" as="sourcePoint"/><mxPoint x="-1027" y="-547" as="targetPoint"/></mxGeometry></mxCell><mxCell id="OnCGVRJBsnfmnJsJHSmS-48" value="" style="endArrow=none;html=1;entryX=1;entryY=1;entryDx=0;entryDy=0;exitX=0;exitY=0;exitDx=0;exitDy=0;sketch=1;curved=1;" parent="1" source="OnCGVRJBsnfmnJsJHSmS-2" target="OnCGVRJBsnfmnJsJHSmS-7" edge="1"><mxGeometry width="50" height="50" relative="1" as="geometry"><mxPoint x="-1067" y="-647" as="sourcePoint"/><mxPoint x="-1047" y="-707" as="targetPoint"/></mxGeometry></mxCell><mxCell id="OnCGVRJBsnfmnJsJHSmS-50" value="" style="endArrow=none;html=1;entryX=0;entryY=1;entryDx=0;entryDy=0;exitX=1;exitY=0;exitDx=0;exitDy=0;sketch=1;curved=1;" parent="1" source="OnCGVRJBsnfmnJsJHSmS-10" target="OnCGVRJBsnfmnJsJHSmS-13" edge="1"><mxGeometry width="50" height="50" relative="1" as="geometry"><mxPoint x="-622" y="-609" as="sourcePoint"/><mxPoint x="-557" y="-687" as="targetPoint"/></mxGeometry></mxCell><mxCell id="OnCGVRJBsnfmnJsJHSmS-51" value="" style="endArrow=none;html=1;entryX=0;entryY=0.5;entryDx=0;entryDy=0;exitX=1;exitY=0.75;exitDx=0;exitDy=0;sketch=1;curved=1;" parent="1" source="OnCGVRJBsnfmnJsJHSmS-10" target="OnCGVRJBsnfmnJsJHSmS-14" edge="1"><mxGeometry width="50" height="50" relative="1" as="geometry"><mxPoint x="-587" y="-607" as="sourcePoint"/><mxPoint x="-557" y="-627" as="targetPoint"/></mxGeometry></mxCell><mxCell id="OnCGVRJBsnfmnJsJHSmS-52" value="" style="endArrow=none;html=1;entryX=0;entryY=0;entryDx=0;entryDy=0;exitX=1;exitY=1;exitDx=0;exitDy=0;sketch=1;curved=1;" parent="1" source="OnCGVRJBsnfmnJsJHSmS-10" target="OnCGVRJBsnfmnJsJHSmS-15" edge="1"><mxGeometry width="50" height="50" relative="1" as="geometry"><mxPoint x="-587" y="-582" as="sourcePoint"/><mxPoint x="-554" y="-575" as="targetPoint"/></mxGeometry></mxCell><mxCell id="OnCGVRJBsnfmnJsJHSmS-53" value="" style="endArrow=none;html=1;entryX=0;entryY=1;entryDx=0;entryDy=0;exitX=0.85;exitY=-0.125;exitDx=0;exitDy=0;exitPerimeter=0;sketch=1;curved=1;" parent="1" source="OnCGVRJBsnfmnJsJHSmS-26" target="OnCGVRJBsnfmnJsJHSmS-29" edge="1"><mxGeometry width="50" height="50" relative="1" as="geometry"><mxPoint x="-577" y="-572" as="sourcePoint"/><mxPoint x="-544" y="-565" as="targetPoint"/></mxGeometry></mxCell><mxCell id="OnCGVRJBsnfmnJsJHSmS-54" value="" style="endArrow=none;html=1;exitX=1;exitY=0;exitDx=0;exitDy=0;sketch=1;curved=1;" parent="1" source="OnCGVRJBsnfmnJsJHSmS-26" edge="1"><mxGeometry width="50" height="50" relative="1" as="geometry"><mxPoint x="-602" y="-292" as="sourcePoint"/><mxPoint x="-517" y="-307" as="targetPoint"/></mxGeometry></mxCell><mxCell id="OnCGVRJBsnfmnJsJHSmS-56" value="" style="endArrow=none;html=1;entryX=0;entryY=0.5;entryDx=0;entryDy=0;exitX=1;exitY=0.75;exitDx=0;exitDy=0;sketch=1;curved=1;" parent="1" source="OnCGVRJBsnfmnJsJHSmS-26" target="OnCGVRJBsnfmnJsJHSmS-30" edge="1"><mxGeometry width="50" height="50" relative="1" as="geometry"><mxPoint x="-577" y="-247" as="sourcePoint"/><mxPoint x="-567" y="-297" as="targetPoint"/></mxGeometry></mxCell><mxCell id="OnCGVRJBsnfmnJsJHSmS-57" value="" style="endArrow=none;html=1;exitX=0.82;exitY=1.075;exitDx=0;exitDy=0;exitPerimeter=0;sketch=1;curved=1;" parent="1" source="OnCGVRJBsnfmnJsJHSmS-26" edge="1"><mxGeometry width="50" height="50" relative="1" as="geometry"><mxPoint x="-587" y="-247" as="sourcePoint"/><mxPoint x="-577" y="-207" as="targetPoint"/></mxGeometry></mxCell><mxCell id="OnCGVRJBsnfmnJsJHSmS-58" value="" style="endArrow=none;html=1;exitX=0.37;exitY=1;exitDx=0;exitDy=0;entryX=0.5;entryY=0;entryDx=0;entryDy=0;exitPerimeter=0;sketch=1;curved=1;" parent="1" source="OnCGVRJBsnfmnJsJHSmS-26" target="OnCGVRJBsnfmnJsJHSmS-37" edge="1"><mxGeometry width="50" height="50" relative="1" as="geometry"><mxPoint x="-577" y="-237" as="sourcePoint"/><mxPoint x="-550" y="-210" as="targetPoint"/></mxGeometry></mxCell><mxCell id="wlYPV-F7qflCaXFZatMz-9" value="reference" style="ellipse;whiteSpace=wrap;html=1;align=center;sketch=1;" parent="1" vertex="1"><mxGeometry x="-1237" y="-537" width="100" height="40" as="geometry"/></mxCell><mxCell id="wlYPV-F7qflCaXFZatMz-40" value="contact_date" style="ellipse;whiteSpace=wrap;html=1;align=center;sketch=1;" parent="1" vertex="1"><mxGeometry x="-567" y="-487" width="100" height="40" as="geometry"/></mxCell><mxCell id="wlYPV-F7qflCaXFZatMz-42" value="" style="endArrow=none;html=1;entryX=0;entryY=0;entryDx=0;entryDy=0;exitX=0.75;exitY=1;exitDx=0;exitDy=0;sketch=1;curved=1;" parent="1" source="OnCGVRJBsnfmnJsJHSmS-10" target="wlYPV-F7qflCaXFZatMz-40" edge="1"><mxGeometry width="50" height="50" relative="1" as="geometry"><mxPoint x="-587" y="-557" as="sourcePoint"/><mxPoint x="-557" y="-517" as="targetPoint"/></mxGeometry></mxCell><mxCell id="3" value="Users" style="whiteSpace=wrap;html=1;align=center;sketch=1;" parent="1" vertex="1"><mxGeometry x="-797" y="-777" width="100" height="40" as="geometry"/></mxCell><mxCell id="4" value="email" style="ellipse;whiteSpace=wrap;html=1;align=center;sketch=1;" parent="1" vertex="1"><mxGeometry x="-657" y="-857" width="100" height="40" as="geometry"/></mxCell><mxCell id="8" value="password" style="ellipse;whiteSpace=wrap;html=1;align=center;sketch=1;" parent="1" vertex="1"><mxGeometry x="-957" y="-887" width="100" height="40" as="geometry"/></mxCell><mxCell id="9" value="" style="endArrow=none;html=1;exitX=0;exitY=0;exitDx=0;exitDy=0;entryX=1;entryY=1;entryDx=0;entryDy=0;sketch=1;curved=1;" parent="1" source="3" target="8" edge="1"><mxGeometry width="50" height="50" relative="1" as="geometry"><mxPoint x="-847" y="-757" as="sourcePoint"/><mxPoint x="-907" y="-837" as="targetPoint"/></mxGeometry></mxCell><mxCell id="11" value="" style="endArrow=none;html=1;exitX=0.5;exitY=0;exitDx=0;exitDy=0;entryX=0.5;entryY=1;entryDx=0;entryDy=0;sketch=1;curved=1;" parent="1" source="3" target="5" edge="1"><mxGeometry width="50" height="50" relative="1" as="geometry"><mxPoint x="-797" y="-807" as="sourcePoint"/><mxPoint x="-777" y="-847" as="targetPoint"/></mxGeometry></mxCell><mxCell id="12" value="" style="endArrow=none;html=1;entryX=0;entryY=1;entryDx=0;entryDy=0;exitX=1;exitY=0;exitDx=0;exitDy=0;sketch=1;curved=1;" parent="1" source="3" target="4" edge="1"><mxGeometry width="50" height="50" relative="1" as="geometry"><mxPoint x="-757" y="-787" as="sourcePoint"/><mxPoint x="-737" y="-827" as="targetPoint"/></mxGeometry></mxCell><mxCell id="13" value="write_posts" style="shape=rhombus;perimeter=rhombusPerimeter;whiteSpace=wrap;html=1;align=center;sketch=1;" parent="1" vertex="1"><mxGeometry x="-1007" y="-727" width="120" height="60" as="geometry"/></mxCell><mxCell id="14" value="initiated_by_action" style="shape=rhombus;perimeter=rhombusPerimeter;whiteSpace=wrap;html=1;align=center;sketch=1;" parent="1" vertex="1"><mxGeometry x="-797" y="-507" width="150" height="70" as="geometry"/></mxCell><mxCell id="26" value="correlate_with_actions" style="shape=rhombus;perimeter=rhombusPerimeter;whiteSpace=wrap;html=1;align=center;sketch=1;" parent="1" vertex="1"><mxGeometry x="-907" y="-387" width="140" height="80" as="geometry"/></mxCell><mxCell id="31" value="" style="endArrow=none;html=1;dashed=1;dashPattern=1 2;entryX=0.5;entryY=0;entryDx=0;entryDy=0;exitX=0;exitY=1;exitDx=0;exitDy=0;sketch=1;curved=1;" parent="1" source="13" target="OnCGVRJBsnfmnJsJHSmS-2" edge="1"><mxGeometry relative="1" as="geometry"><mxPoint x="-947" y="-668" as="sourcePoint"/><mxPoint x="-787" y="-668" as="targetPoint"/></mxGeometry></mxCell><mxCell id="32" value="N" style="resizable=0;html=1;align=right;verticalAlign=bottom;sketch=1;" parent="31" connectable="0" vertex="1"><mxGeometry x="1" relative="1" as="geometry"/></mxCell><mxCell id="35" value="" style="endArrow=none;html=1;entryX=0;entryY=1;entryDx=0;entryDy=0;exitX=1;exitY=0;exitDx=0;exitDy=0;sketch=1;curved=1;" parent="1" source="13" target="3" edge="1"><mxGeometry relative="1" as="geometry"><mxPoint x="-887" y="-697" as="sourcePoint"/><mxPoint x="-837" y="-697" as="targetPoint"/></mxGeometry></mxCell><mxCell id="36" value="1" style="resizable=0;html=1;align=right;verticalAlign=bottom;sketch=1;" parent="35" connectable="0" vertex="1"><mxGeometry x="1" relative="1" as="geometry"/></mxCell><mxCell id="37" value="" style="endArrow=none;html=1;dashed=1;dashPattern=1 2;exitX=0.5;exitY=0;exitDx=0;exitDy=0;entryX=0.5;entryY=1;entryDx=0;entryDy=0;sketch=1;curved=1;" parent="1" source="26" target="3" edge="1"><mxGeometry relative="1" as="geometry"><mxPoint x="-847" y="-477" as="sourcePoint"/><mxPoint x="-767" y="-717" as="targetPoint"/></mxGeometry></mxCell><mxCell id="38" value="N" style="resizable=0;html=1;align=right;verticalAlign=bottom;sketch=1;" parent="37" connectable="0" vertex="1"><mxGeometry x="1" relative="1" as="geometry"/></mxCell><mxCell id="39" value="" style="endArrow=none;html=1;dashed=1;dashPattern=1 2;entryX=0;entryY=0;entryDx=0;entryDy=0;exitX=1;exitY=1;exitDx=0;exitDy=0;sketch=1;curved=1;" parent="1" source="26" target="OnCGVRJBsnfmnJsJHSmS-26" edge="1"><mxGeometry relative="1" as="geometry"><mxPoint x="-827" y="-427.5" as="sourcePoint"/><mxPoint x="-667" y="-427.5" as="targetPoint"/></mxGeometry></mxCell><mxCell id="40" value="N" style="resizable=0;html=1;align=right;verticalAlign=bottom;sketch=1;" parent="39" connectable="0" vertex="1"><mxGeometry x="1" relative="1" as="geometry"/></mxCell><mxCell id="41" value="" style="endArrow=none;html=1;dashed=1;dashPattern=1 2;entryX=0.75;entryY=0;entryDx=0;entryDy=0;exitX=0;exitY=1;exitDx=0;exitDy=0;sketch=1;curved=1;" parent="1" source="26" target="OnCGVRJBsnfmnJsJHSmS-21" edge="1"><mxGeometry relative="1" as="geometry"><mxPoint x="-877" y="-427" as="sourcePoint"/><mxPoint x="-707" y="-427.5" as="targetPoint"/></mxGeometry></mxCell><mxCell id="42" value="N" style="resizable=0;html=1;align=right;verticalAlign=bottom;sketch=1;" parent="41" connectable="0" vertex="1"><mxGeometry x="1" relative="1" as="geometry"/></mxCell><mxCell id="46" value="" style="endArrow=none;html=1;entryX=0.5;entryY=1;entryDx=0;entryDy=0;exitX=1;exitY=0;exitDx=0;exitDy=0;sketch=1;curved=1;" parent="1" source="14" target="OnCGVRJBsnfmnJsJHSmS-10" edge="1"><mxGeometry relative="1" as="geometry"><mxPoint x="-707" y="-497" as="sourcePoint"/><mxPoint x="-647" y="-547" as="targetPoint"/></mxGeometry></mxCell><mxCell id="47" value="1" style="resizable=0;html=1;align=right;verticalAlign=bottom;sketch=1;" parent="46" connectable="0" vertex="1"><mxGeometry x="1" relative="1" as="geometry"/></mxCell><mxCell id="OnCGVRJBsnfmnJsJHSmS-29" value="action_date" style="ellipse;whiteSpace=wrap;html=1;align=center;sketch=1;" parent="1" vertex="1"><mxGeometry x="-577" y="-387" width="100" height="40" as="geometry"/></mxCell><mxCell id="55" value="" style="endArrow=none;html=1;dashed=1;dashPattern=1 2;entryX=0.5;entryY=0;entryDx=0;entryDy=0;exitX=0.5;exitY=1;exitDx=0;exitDy=0;sketch=1;curved=1;" parent="1" source="14" target="OnCGVRJBsnfmnJsJHSmS-26" edge="1"><mxGeometry relative="1" as="geometry"><mxPoint x="-637" y="-397" as="sourcePoint"/><mxPoint x="-477" y="-397" as="targetPoint"/></mxGeometry></mxCell><mxCell id="56" value="1" style="resizable=0;html=1;align=right;verticalAlign=bottom;sketch=1;" parent="55" connectable="0" vertex="1"><mxGeometry x="1" relative="1" as="geometry"/></mxCell><mxCell id="61" value="" style="endArrow=none;html=1;entryX=0;entryY=1;entryDx=0;entryDy=0;exitX=0.75;exitY=0;exitDx=0;exitDy=0;sketch=1;curved=1;" parent="1" source="OnCGVRJBsnfmnJsJHSmS-10" target="OnCGVRJBsnfmnJsJHSmS-12" edge="1"><mxGeometry width="50" height="50" relative="1" as="geometry"><mxPoint x="-622" y="-556" as="sourcePoint"/><mxPoint x="-550" y="-470" as="targetPoint"/></mxGeometry></mxCell><mxCell id="65" value="" style="endArrow=none;html=1;entryX=0;entryY=0;entryDx=0;entryDy=0;exitX=1;exitY=1;exitDx=0;exitDy=0;sketch=1;curved=1;" parent="1" source="66" target="26" edge="1"><mxGeometry width="50" height="50" relative="1" as="geometry"><mxPoint x="-897" y="-497" as="sourcePoint"/><mxPoint x="-827.3553390593274" y="-411.14213562373106" as="targetPoint"/></mxGeometry></mxCell><mxCell id="66" value="logged_in" style="ellipse;whiteSpace=wrap;html=1;align=center;sketch=1;" parent="1" vertex="1"><mxGeometry x="-987" y="-417" width="100" height="40" as="geometry"/></mxCell><mxCell id="69" value="privileges" style="ellipse;whiteSpace=wrap;html=1;align=center;sketch=1;" parent="1" vertex="1"><mxGeometry x="-1007" y="-817" width="100" height="40" as="geometry"/></mxCell><mxCell id="70" value="" style="endArrow=none;html=1;exitX=0;exitY=0.5;exitDx=0;exitDy=0;entryX=1;entryY=1;entryDx=0;entryDy=0;sketch=1;curved=1;" parent="1" source="3" target="69" edge="1"><mxGeometry width="50" height="50" relative="1" as="geometry"><mxPoint x="-787" y="-767" as="sourcePoint"/><mxPoint x="-827" y="-817" as="targetPoint"/></mxGeometry></mxCell><mxCell id="71" value="lastname" style="ellipse;whiteSpace=wrap;html=1;align=center;sketch=1;" parent="1" vertex="1"><mxGeometry x="-417" y="-657" width="100" height="40" as="geometry"/></mxCell><mxCell id="72" value="" style="endArrow=none;html=1;entryX=0;entryY=0.5;entryDx=0;entryDy=0;exitX=1;exitY=0;exitDx=0;exitDy=0;sketch=1;curved=1;" parent="1" target="71" edge="1"><mxGeometry width="50" height="50" relative="1" as="geometry"><mxPoint x="-597" y="-607" as="sourcePoint"/><mxPoint x="-447" y="-647" as="targetPoint"/></mxGeometry></mxCell><mxCell id="73" value="organization" style="ellipse;whiteSpace=wrap;html=1;align=center;sketch=1;" parent="1" vertex="1"><mxGeometry x="-507" y="-612" width="150" height="40" as="geometry"/></mxCell><mxCell id="74" value="" style="endArrow=none;html=1;entryX=0;entryY=0.5;entryDx=0;entryDy=0;exitX=1;exitY=0.5;exitDx=0;exitDy=0;sketch=1;curved=1;" parent="1" source="OnCGVRJBsnfmnJsJHSmS-10" target="73" edge="1"><mxGeometry width="50" height="50" relative="1" as="geometry"><mxPoint x="-587" y="-582" as="sourcePoint"/><mxPoint x="-407" y="-537" as="targetPoint"/></mxGeometry></mxCell><mxCell id="75" value="lastname" style="ellipse;whiteSpace=wrap;html=1;align=center;sketch=1;" parent="1" vertex="1"><mxGeometry x="-717" y="-997" width="100" height="40" as="geometry"/></mxCell><mxCell id="76" value="" style="endArrow=none;html=1;exitX=0.75;exitY=0;exitDx=0;exitDy=0;entryX=0.5;entryY=1;entryDx=0;entryDy=0;sketch=1;curved=1;" parent="1" source="3" target="75" edge="1"><mxGeometry width="50" height="50" relative="1" as="geometry"><mxPoint x="-737" y="-767" as="sourcePoint"/><mxPoint x="-747" y="-897" as="targetPoint"/></mxGeometry></mxCell><mxCell id="OnCGVRJBsnfmnJsJHSmS-24" value="webclient" style="ellipse;whiteSpace=wrap;html=1;align=center;sketch=1;" parent="1" vertex="1"><mxGeometry x="-1067" y="-107" width="100" height="40" as="geometry"/></mxCell><mxCell id="80" value="" style="endArrow=none;html=1;entryX=1;entryY=1;entryDx=0;entryDy=0;exitX=0;exitY=0;exitDx=0;exitDy=0;startArrow=none;sketch=1;curved=1;" parent="1" source="14" target="OnCGVRJBsnfmnJsJHSmS-2" edge="1"><mxGeometry relative="1" as="geometry"><mxPoint x="-914.5" y="-554.5" as="sourcePoint"/><mxPoint x="-847" y="-587" as="targetPoint"/></mxGeometry></mxCell><mxCell id="81" value="1" style="resizable=0;html=1;align=right;verticalAlign=bottom;sketch=1;" parent="80" connectable="0" vertex="1"><mxGeometry x="1" relative="1" as="geometry"/></mxCell><mxCell id="84" value="Comments" style="whiteSpace=wrap;html=1;align=center;sketch=1;" parent="1" vertex="1"><mxGeometry x="-1087" y="-467" width="100" height="40" as="geometry"/></mxCell><mxCell id="91" value="" style="endArrow=none;html=1;entryX=1;entryY=0.5;entryDx=0;entryDy=0;exitX=0;exitY=0.5;exitDx=0;exitDy=0;startArrow=none;sketch=1;curved=1;" parent="1" source="14" target="84" edge="1"><mxGeometry relative="1" as="geometry"><mxPoint x="-749.5" y="-385.75" as="sourcePoint"/><mxPoint x="-967" y="-488.25" as="targetPoint"/></mxGeometry></mxCell><mxCell id="92" value="1" style="resizable=0;html=1;align=right;verticalAlign=bottom;sketch=1;" parent="91" connectable="0" vertex="1"><mxGeometry x="1" relative="1" as="geometry"/></mxCell><mxCell id="93" value="write_comments" style="shape=rhombus;perimeter=rhombusPerimeter;whiteSpace=wrap;html=1;align=center;sketch=1;" parent="1" vertex="1"><mxGeometry x="-927" y="-657" width="120" height="60" as="geometry"/></mxCell><mxCell id="94" value="" style="endArrow=none;html=1;exitX=0.762;exitY=0.13;exitDx=0;exitDy=0;exitPerimeter=0;sketch=1;curved=1;" parent="1" source="93" edge="1"><mxGeometry relative="1" as="geometry"><mxPoint x="-837" y="-667" as="sourcePoint"/><mxPoint x="-777" y="-727" as="targetPoint"/></mxGeometry></mxCell><mxCell id="95" value="1" style="resizable=0;html=1;align=right;verticalAlign=bottom;sketch=1;" parent="94" connectable="0" vertex="1"><mxGeometry x="1" relative="1" as="geometry"/></mxCell><mxCell id="97" value="" style="endArrow=none;html=1;exitX=0.25;exitY=0;exitDx=0;exitDy=0;entryX=0.5;entryY=1;entryDx=0;entryDy=0;sketch=1;curved=1;" parent="1" source="3" target="96" edge="1"><mxGeometry width="50" height="50" relative="1" as="geometry"><mxPoint x="-787" y="-767" as="sourcePoint"/><mxPoint x="-861.8544793961721" y="-842.7744321365458" as="targetPoint"/></mxGeometry></mxCell><mxCell id="102" value="" style="endArrow=none;html=1;dashed=1;dashPattern=1 2;entryX=0.75;entryY=0;entryDx=0;entryDy=0;exitX=0;exitY=1;exitDx=0;exitDy=0;sketch=1;curved=1;" parent="1" source="93" target="84" edge="1"><mxGeometry relative="1" as="geometry"><mxPoint x="-907" y="-587" as="sourcePoint"/><mxPoint x="-747" y="-587" as="targetPoint"/></mxGeometry></mxCell><mxCell id="103" value="N" style="resizable=0;html=1;align=right;verticalAlign=bottom;sketch=1;" parent="102" connectable="0" vertex="1"><mxGeometry x="1" relative="1" as="geometry"/></mxCell><mxCell id="104" value="comment_text" style="ellipse;whiteSpace=wrap;html=1;align=center;sketch=1;" parent="1" vertex="1"><mxGeometry x="-1227" y="-457" width="100" height="40" as="geometry"/></mxCell><mxCell id="107" value="comment_date" style="ellipse;whiteSpace=wrap;html=1;align=center;sketch=1;" parent="1" vertex="1"><mxGeometry x="-1077" y="-367" width="100" height="40" as="geometry"/></mxCell><mxCell id="108" value="" style="endArrow=none;html=1;entryX=1;entryY=0.5;entryDx=0;entryDy=0;exitX=0;exitY=0.5;exitDx=0;exitDy=0;sketch=1;curved=1;" parent="1" source="84" target="104" edge="1"><mxGeometry width="50" height="50" relative="1" as="geometry"><mxPoint x="-1066.995054945055" y="-533" as="sourcePoint"/><mxPoint x="-1146.0500000000002" y="-467.0000000000002" as="targetPoint"/></mxGeometry></mxCell><mxCell id="110" value="" style="endArrow=none;html=1;entryX=0.5;entryY=0;entryDx=0;entryDy=0;exitX=0.75;exitY=1;exitDx=0;exitDy=0;sketch=1;curved=1;" parent="1" source="84" target="107" edge="1"><mxGeometry width="50" height="50" relative="1" as="geometry"><mxPoint x="-1027" y="-437" as="sourcePoint"/><mxPoint x="-1087.0000000000002" y="-387.0000000000002" as="targetPoint"/></mxGeometry></mxCell><mxCell id="113" value="&lt;u&gt;cid&lt;/u&gt;" style="ellipse;whiteSpace=wrap;html=1;align=center;sketch=1;" parent="1" vertex="1"><mxGeometry x="-1187" y="-397" width="100" height="40" as="geometry"/></mxCell><mxCell id="114" value="" style="endArrow=none;html=1;entryX=1;entryY=0;entryDx=0;entryDy=0;exitX=0.5;exitY=1;exitDx=0;exitDy=0;sketch=1;curved=1;" parent="1" source="84" target="113" edge="1"><mxGeometry width="50" height="50" relative="1" as="geometry"><mxPoint x="-982" y="-457" as="sourcePoint"/><mxPoint x="-1017" y="-357" as="targetPoint"/></mxGeometry></mxCell><mxCell id="115" value="contains_comments" style="shape=rhombus;perimeter=rhombusPerimeter;whiteSpace=wrap;html=1;align=center;sketch=1;" parent="1" vertex="1"><mxGeometry x="-1117" y="-557" width="140" height="50" as="geometry"/></mxCell><mxCell id="116" value="" style="endArrow=none;html=1;entryX=0.5;entryY=1;entryDx=0;entryDy=0;exitX=0.5;exitY=0;exitDx=0;exitDy=0;sketch=1;curved=1;" parent="1" source="115" target="OnCGVRJBsnfmnJsJHSmS-2" edge="1"><mxGeometry relative="1" as="geometry"><mxPoint x="-1047" y="-547" as="sourcePoint"/><mxPoint x="-1027" y="-587" as="targetPoint"/></mxGeometry></mxCell><mxCell id="117" value="1" style="resizable=0;html=1;align=right;verticalAlign=bottom;sketch=1;" parent="116" connectable="0" vertex="1"><mxGeometry x="1" relative="1" as="geometry"/></mxCell><mxCell id="118" value="" style="endArrow=none;html=1;dashed=1;dashPattern=1 2;exitX=0.5;exitY=1;exitDx=0;exitDy=0;entryX=0.25;entryY=0;entryDx=0;entryDy=0;sketch=1;curved=1;" parent="1" source="115" target="84" edge="1"><mxGeometry relative="1" as="geometry"><mxPoint x="-1047" y="-507" as="sourcePoint"/><mxPoint x="-887" y="-507" as="targetPoint"/></mxGeometry></mxCell><mxCell id="119" value="N" style="resizable=0;html=1;align=right;verticalAlign=bottom;sketch=1;" parent="118" connectable="0" vertex="1"><mxGeometry x="1" relative="1" as="geometry"/></mxCell><mxCell id="120" value="&lt;h1 style=&quot;font-size: 19px&quot;&gt;ER Diagram of Database Schema&lt;/h1&gt;&lt;p style=&quot;font-size: 15px&quot;&gt;This diagram is a conceptual schema for the websites database. It is based on the following assumptions:&lt;/p&gt;&lt;p style=&quot;font-size: 15px&quot;&gt;1. The website allows visitors to contact website administrators per contact form.&lt;/p&gt;&lt;p style=&quot;font-size: 15px&quot;&gt;2. The websites allows visitors to register as users and to delete their accounts.&lt;/p&gt;&lt;p style=&quot;font-size: 15px&quot;&gt;&lt;span&gt;3.&amp;nbsp; The website allows users to write posts and comment on them.&amp;nbsp;&lt;/span&gt;&lt;br&gt;&lt;/p&gt;&lt;p style=&quot;font-size: 15px&quot;&gt;4. The website allows users and non users to contact the website administrators through a contact form.&lt;/p&gt;&lt;p style=&quot;font-size: 15px&quot;&gt;5. The website allows users and non users to subscribe with their email to receive updates and unsubscribe if needed.&lt;/p&gt;&lt;p style=&quot;font-size: 15px&quot;&gt;6. The website registers visits and actions.&lt;/p&gt;&lt;p style=&quot;font-size: 15px&quot;&gt;Additionally:&lt;/p&gt;&lt;p style=&quot;font-size: 15px&quot;&gt;7. Visits may correlate with actions.&lt;/p&gt;&lt;p style=&quot;font-size: 15px&quot;&gt;8. Visits and actions correlate if a user is logged in.&lt;/p&gt;&lt;p style=&quot;font-size: 15px&quot;&gt;&lt;br&gt;&lt;/p&gt;" style="text;html=1;strokeColor=none;fillColor=none;spacing=5;spacingTop=-20;whiteSpace=wrap;overflow=hidden;fontSize=19;sketch=1;" parent="1" vertex="1"><mxGeometry x="-1697" y="-1057" width="460" height="540" as="geometry"/></mxCell><mxCell id="123" value="&lt;u&gt;email&lt;/u&gt;" style="ellipse;whiteSpace=wrap;html=1;align=center;sketch=1;" parent="1" vertex="1"><mxGeometry x="-327" y="-907" width="100" height="40" as="geometry"/></mxCell><mxCell id="128" value="start_date" style="ellipse;whiteSpace=wrap;html=1;align=center;fontSize=15;sketch=1;" parent="1" vertex="1"><mxGeometry x="-917" y="-967" width="100" height="40" as="geometry"/></mxCell><mxCell id="130" value="end_date" style="ellipse;whiteSpace=wrap;html=1;align=center;fontSize=15;sketch=1;" parent="1" vertex="1"><mxGeometry x="-447" y="-997" width="100" height="40" as="geometry"/></mxCell><mxCell id="131" value="email_confirmed" style="ellipse;whiteSpace=wrap;html=1;align=center;fontSize=15;sketch=1;" parent="1" vertex="1"><mxGeometry x="-377" y="-957" width="130" height="40" as="geometry"/></mxCell><mxCell id="132" value="email_confirmed" style="ellipse;whiteSpace=wrap;html=1;align=center;fontSize=15;sketch=1;" parent="1" vertex="1"><mxGeometry x="-672" y="-937" width="130" height="40" as="geometry"/></mxCell><mxCell id="133" value="" style="endArrow=none;html=1;entryX=0;entryY=1;entryDx=0;entryDy=0;sketch=1;curved=1;" parent="1" target="132" edge="1"><mxGeometry width="50" height="50" relative="1" as="geometry"><mxPoint x="-707" y="-777" as="sourcePoint"/><mxPoint x="-642" y="-957" as="targetPoint"/></mxGeometry></mxCell><mxCell id="134" value="start_date" style="ellipse;whiteSpace=wrap;html=1;align=center;fontSize=15;sketch=1;" parent="1" vertex="1"><mxGeometry x="-517" y="-957" width="100" height="40" as="geometry"/></mxCell><mxCell id="135" value="end_date" style="ellipse;whiteSpace=wrap;html=1;align=center;fontSize=15;sketch=1;" parent="1" vertex="1"><mxGeometry x="-827" y="-1007" width="100" height="40" as="geometry"/></mxCell><mxCell id="137" value="" style="endArrow=none;html=1;entryX=0.5;entryY=1;entryDx=0;entryDy=0;sketch=1;curved=1;" parent="1" target="128" edge="1"><mxGeometry width="50" height="50" relative="1" as="geometry"><mxPoint x="-787" y="-777" as="sourcePoint"/><mxPoint x="-861.8544793961648" y="-842.774432136543" as="targetPoint"/></mxGeometry></mxCell><mxCell id="138" value="" style="endArrow=none;html=1;entryX=0.5;entryY=1;entryDx=0;entryDy=0;sketch=1;curved=1;" parent="1" target="135" edge="1"><mxGeometry width="50" height="50" relative="1" as="geometry"><mxPoint x="-757" y="-777" as="sourcePoint"/><mxPoint x="-807" y="-967" as="targetPoint"/></mxGeometry></mxCell><mxCell id="5" value="firstname" style="ellipse;whiteSpace=wrap;html=1;align=center;sketch=1;" parent="1" vertex="1"><mxGeometry x="-807" y="-947" width="100" height="40" as="geometry"/></mxCell><mxCell id="96" value="&lt;u&gt;uid&lt;/u&gt;" style="ellipse;whiteSpace=wrap;html=1;align=center;sketch=1;" parent="1" vertex="1"><mxGeometry x="-847" y="-867" width="100" height="40" as="geometry"/></mxCell><mxCell id="139" value="" style="endArrow=none;html=1;entryX=0.5;entryY=1;entryDx=0;entryDy=0;startArrow=none;exitX=0.25;exitY=0;exitDx=0;exitDy=0;sketch=1;curved=1;" parent="1" source="122" target="134" edge="1"><mxGeometry width="50" height="50" relative="1" as="geometry"><mxPoint x="-437" y="-867" as="sourcePoint"/><mxPoint x="-386.9976007919554" y="-952.8258324824869" as="targetPoint"/></mxGeometry></mxCell><mxCell id="140" value="" style="endArrow=none;html=1;entryX=0.5;entryY=1;entryDx=0;entryDy=0;exitX=0.5;exitY=0;exitDx=0;exitDy=0;sketch=1;curved=1;" parent="1" source="122" target="130" edge="1"><mxGeometry width="50" height="50" relative="1" as="geometry"><mxPoint x="-406.9999999999998" y="-857" as="sourcePoint"/><mxPoint x="-362.8599999999999" y="-947" as="targetPoint"/></mxGeometry></mxCell><mxCell id="141" value="" style="endArrow=none;html=1;entryX=0.319;entryY=1.078;entryDx=0;entryDy=0;exitX=1;exitY=0.25;exitDx=0;exitDy=0;entryPerimeter=0;sketch=1;curved=1;" parent="1" source="122" target="131" edge="1"><mxGeometry width="50" height="50" relative="1" as="geometry"><mxPoint x="-387" y="-847" as="sourcePoint"/><mxPoint x="-297.00000000000045" y="-947" as="targetPoint"/></mxGeometry></mxCell><mxCell id="142" value="" style="endArrow=none;html=1;entryX=0;entryY=1;entryDx=0;entryDy=0;exitX=1;exitY=0.5;exitDx=0;exitDy=0;sketch=1;curved=1;" parent="1" source="122" target="123" edge="1"><mxGeometry width="50" height="50" relative="1" as="geometry"><mxPoint x="-387" y="-837" as="sourcePoint"/><mxPoint x="-327.00000000000045" y="-877" as="targetPoint"/></mxGeometry></mxCell><mxCell id="122" value="Subscriptions" style="whiteSpace=wrap;html=1;align=center;fontSize=15;sketch=1;" parent="1" vertex="1"><mxGeometry x="-467" y="-857" width="100" height="40" as="geometry"/></mxCell><mxCell id="143" value="have_subscription" style="shape=rhombus;perimeter=rhombusPerimeter;whiteSpace=wrap;html=1;align=center;fontSize=15;sketch=1;" parent="1" vertex="1"><mxGeometry x="-637" y="-817" width="170" height="60" as="geometry"/></mxCell><mxCell id="148" value="" style="endArrow=none;html=1;dashed=1;dashPattern=1 2;fontSize=15;entryX=1;entryY=0.5;entryDx=0;entryDy=0;sketch=1;curved=1;" parent="1" target="3" edge="1"><mxGeometry relative="1" as="geometry"><mxPoint x="-632" y="-787.5" as="sourcePoint"/><mxPoint x="-472" y="-787.5" as="targetPoint"/></mxGeometry></mxCell><mxCell id="149" value="1" style="resizable=0;html=1;align=right;verticalAlign=bottom;fontSize=15;sketch=1;" parent="148" connectable="0" vertex="1"><mxGeometry x="1" relative="1" as="geometry"/></mxCell><mxCell id="150" value="" style="endArrow=none;html=1;dashed=1;dashPattern=1 2;fontSize=15;entryX=0;entryY=1;entryDx=0;entryDy=0;sketch=1;curved=1;" parent="1" target="122" edge="1"><mxGeometry relative="1" as="geometry"><mxPoint x="-497" y="-797.5" as="sourcePoint"/><mxPoint x="-337" y="-797.5" as="targetPoint"/></mxGeometry></mxCell><mxCell id="151" value="1" style="resizable=0;html=1;align=right;verticalAlign=bottom;fontSize=15;sketch=1;" parent="150" connectable="0" vertex="1"><mxGeometry x="1" relative="1" as="geometry"/></mxCell><mxCell id="152" value="" style="endArrow=none;html=1;fontSize=15;entryX=0.5;entryY=1;entryDx=0;entryDy=0;sketch=1;curved=1;" parent="1" target="122" edge="1"><mxGeometry relative="1" as="geometry"><mxPoint x="-672" y="-457.71000000000004" as="sourcePoint"/><mxPoint x="-317" y="-807" as="targetPoint"/><Array as="points"><mxPoint x="-497" y="-397"/><mxPoint x="-307" y="-427"/><mxPoint x="-237" y="-587"/><mxPoint x="-257" y="-727"/></Array></mxGeometry></mxCell><mxCell id="153" value="1" style="resizable=0;html=1;align=right;verticalAlign=bottom;fontSize=15;sketch=1;" parent="152" connectable="0" vertex="1"><mxGeometry x="1" relative="1" as="geometry"/></mxCell><mxCell id="154" value="logged_in" style="ellipse;whiteSpace=wrap;html=1;align=center;sketch=1;" parent="1" vertex="1"><mxGeometry x="-1067" y="-867" width="100" height="40" as="geometry"/></mxCell><mxCell id="155" value="" style="endArrow=none;html=1;exitX=0;exitY=0.25;exitDx=0;exitDy=0;entryX=1;entryY=1;entryDx=0;entryDy=0;sketch=1;curved=1;" parent="1" source="3" edge="1"><mxGeometry width="50" height="50" relative="1" as="geometry"><mxPoint x="-842.36" y="-817" as="sourcePoint"/><mxPoint x="-967.0046609406726" y="-842.8578643762689" as="targetPoint"/></mxGeometry></mxCell><mxCell id="159" value="url" style="ellipse;whiteSpace=wrap;html=1;align=center;sketch=1;" parent="1" vertex="1"><mxGeometry x="-987" y="-147" width="100" height="40" as="geometry"/></mxCell><mxCell id="160" value="" style="endArrow=none;html=1;entryX=0.5;entryY=0;entryDx=0;entryDy=0;exitX=0.5;exitY=1;exitDx=0;exitDy=0;sketch=1;curved=1;" parent="1" source="OnCGVRJBsnfmnJsJHSmS-21" target="159" edge="1"><mxGeometry width="50" height="50" relative="1" as="geometry"><mxPoint x="-932" y="-207" as="sourcePoint"/><mxPoint x="-1007" y="-97" as="targetPoint"/><Array as="points"/></mxGeometry></mxCell><mxCell id="161" value="&lt;h1&gt;&lt;font style=&quot;font-size: 18px&quot;&gt;Relational-Model Derived from Diagramm&lt;/font&gt;&lt;/h1&gt;&lt;div&gt;&lt;b&gt;Users&lt;/b&gt;(PK: uid, FK: email, password, firstname, lastname, email_confirmed, start_date, end_date, password, logged_in);&lt;/div&gt;&lt;div&gt;&lt;br&gt;&lt;/div&gt;&lt;div&gt;&lt;b&gt;&lt;i&gt;have_subscription&lt;/i&gt;&lt;/b&gt;(PK: (FK: uid, FK: email));&lt;/div&gt;&lt;div&gt;&lt;br&gt;&lt;/div&gt;&lt;div&gt;&lt;b&gt;Subscriptions&lt;/b&gt;(PK: email, email_confirmed, start_date, end_date);&lt;/div&gt;&lt;div&gt;&lt;br&gt;&lt;/div&gt;&lt;div&gt;&lt;b&gt;&lt;i&gt;write_posts&lt;/i&gt;&lt;/b&gt;(PK: (FK: uid, FK: bpid));&lt;/div&gt;&lt;div&gt;&lt;br&gt;&lt;/div&gt;&lt;div&gt;&lt;b&gt;&lt;i&gt;write_comments&lt;/i&gt;&lt;/b&gt;(PK: (FK: uid, FK: cid));&lt;/div&gt;&lt;div&gt;&lt;br&gt;&lt;/div&gt;&lt;div&gt;&lt;b&gt;BlogPosts&lt;/b&gt;(PK: bpid, post_text, pinned, post_date, image_src);&lt;/div&gt;&lt;div&gt;&lt;br&gt;&lt;/div&gt;&lt;div&gt;&lt;b&gt;&lt;i&gt;contains_comments&lt;/i&gt;&lt;/b&gt;(PK: (FK: bpid, FK: cid));&lt;/div&gt;&lt;div&gt;&lt;br&gt;&lt;/div&gt;&lt;div&gt;&lt;b&gt;Comments&lt;/b&gt;(PK: cid, comment_text, comment_date);&lt;/div&gt;&lt;div&gt;&lt;br&gt;&lt;/div&gt;&lt;div&gt;&lt;b&gt;Contacts&lt;/b&gt;(PK: coid, contact_text, email, firstname, lastname, organization, contact_date);&lt;/div&gt;&lt;div&gt;&lt;br&gt;&lt;/div&gt;&lt;div&gt;&lt;b&gt;&lt;i&gt;correlate_with_actions&lt;/i&gt;&lt;/b&gt;(PK: (FK: vid, FK: aid, FK: uid), logged_in);&lt;/div&gt;&lt;div&gt;&lt;br&gt;&lt;/div&gt;&lt;div&gt;&lt;b&gt;&lt;i&gt;initiated_by_action&lt;/i&gt;&lt;/b&gt;(PK/FK: (aid), FK: bpid, FK: cid, FK: coid, FK: email);&lt;/div&gt;&lt;div&gt;&lt;br&gt;&lt;/div&gt;&lt;div&gt;&lt;br&gt;&lt;/div&gt;&lt;div&gt;&lt;br&gt;&lt;/div&gt;&lt;div&gt;&lt;br&gt;&lt;/div&gt;&lt;div&gt;&lt;br&gt;&lt;/div&gt;&lt;div&gt;&lt;br&gt;&lt;/div&gt;&lt;div&gt;&lt;br&gt;&lt;/div&gt;&lt;div&gt;&lt;br&gt;&lt;/div&gt;" style="text;html=1;strokeColor=none;fillColor=none;spacing=5;spacingTop=-20;whiteSpace=wrap;overflow=hidden;fontSize=15;sketch=1;" parent="1" vertex="1"><mxGeometry x="-1697" y="-606" width="490" height="560" as="geometry"/></mxCell><mxCell id="163" value="&lt;font style=&quot;font-size: 48px&quot;&gt;Website Database Design&lt;/font&gt;" style="text;html=1;strokeColor=none;fillColor=none;align=center;verticalAlign=middle;whiteSpace=wrap;rounded=0;sketch=1;" parent="1" vertex="1"><mxGeometry x="-1332" y="-1154" width="601" height="68" as="geometry"/></mxCell><mxCell id="164" value="approved" style="ellipse;whiteSpace=wrap;html=1;align=center;" vertex="1" parent="1"><mxGeometry x="-971" y="-514" width="100" height="40" as="geometry"/></mxCell><mxCell id="165" value="approved" style="ellipse;whiteSpace=wrap;html=1;align=center;" vertex="1" parent="1"><mxGeometry x="-1107" y="-767" width="100" height="40" as="geometry"/></mxCell><mxCell id="166" value="" style="endArrow=none;html=1;entryX=0.5;entryY=1;entryDx=0;entryDy=0;exitX=0.25;exitY=0;exitDx=0;exitDy=0;sketch=1;curved=1;" edge="1" parent="1" source="OnCGVRJBsnfmnJsJHSmS-2" target="165"><mxGeometry width="50" height="50" relative="1" as="geometry"><mxPoint x="-1067" y="-632" as="sourcePoint"/><mxPoint x="-1126.99999999999" y="-717" as="targetPoint"/></mxGeometry></mxCell><mxCell id="169" value="" style="endArrow=none;html=1;entryX=1;entryY=0;entryDx=0;entryDy=0;sketch=1;curved=1;exitX=0;exitY=1;exitDx=0;exitDy=0;" edge="1" parent="1" source="164" target="84"><mxGeometry width="50" height="50" relative="1" as="geometry"><mxPoint x="-1046.9450549450548" y="-582" as="sourcePoint"/><mxPoint x="-1125.9999999999995" y="-516" as="targetPoint"/></mxGeometry></mxCell></root></mxGraphModel></diagram></mxfile>